<svg width="1977" height="921" viewBox="0 0 1977 921" fill="none" xmlns="http://www.w3.org/2000/svg">
<g id="neurallines">
<path id="Vector 10" d="M1 3C122.333 25.8333 447.7 125.1 778.5 339.5C1109.3 553.9 1714 216.167 1975 20.5M1945 810C1877.33 664.333 1608.3 375 1073.5 383C538.7 391 150 698.667 22.5 851.5M22.5 90C245.5 208.333 762.4 451.2 1046 476C1329.6 500.8 1763.5 249.667 1945 121" stroke="white" stroke-width="5"/>
<path id="Vector 11" d="M33 672.5C170.833 566.667 570.5 370.9 1066.5 434.5C1562.5 498.1 1858.83 773.333 1945 903M1945 204C1793.5 253.988 1405.7 362.472 1066.5 396.5C727.3 430.528 236.167 181.012 33 52M33 166C185.667 267 599.9 444.9 1035.5 348.5C1471.1 252.1 1823.33 85.6667 1945 14.5M33 762C156.833 652.833 509.3 434.5 928.5 434.5C1452.5 434.5 1624.5 417.5 1934.5 689.5M1934.5 293.5C1800.17 331.333 1432.3 418.7 1035.5 465.5C638.7 512.3 201.833 354 33 269M33 348.5C206.333 321.153 674.3 295.968 1159.5 414C1644.7 532.032 1837 800.847 1872.5 920.5M1928 365.5C1687.33 399.146 1169.6 463.55 1024 452C878.4 440.45 315 294.854 51.5 223.5M33 602C178.167 522.167 564 372.8 946 414C1328 455.2 1759.83 465.5 1928 465.5M1928 522.5C1681 517.5 1120.3 496.4 853.5 452C586.7 407.6 207.667 396.5 51.5 396.5M33 544C239 453.667 766.7 301.2 1229.5 414C1692.3 526.8 1899.33 760 1945 862.5" stroke="white" stroke-width="3"/>
</g>
</svg>
